<?xml version="1.0" encoding="UTF-8" standalone="no"?>
<!DOCTYPE svg PUBLIC "-//W3C//DTD SVG 1.1//EN"
 "http://www.w3.org/Graphics/SVG/1.1/DTD/svg11.dtd">
<!-- Generated by graphviz version 2.40.1 (20161225.0304)
 -->
<!-- Title: dependencies Pages: 1 -->
<svg width="504pt" height="284pt"
 viewBox="0.00 0.00 504.00 284.00" xmlns="http://www.w3.org/2000/svg" xmlns:xlink="http://www.w3.org/1999/xlink">
<g id="graph0" class="graph" transform="scale(1 1) rotate(0) translate(4 280)">
<title>dependencies</title>
<polygon fill="#ffffff" stroke="transparent" points="-4,4 -4,-280 500,-280 500,4 -4,4"/>
<text text-anchor="start" x="227.0091" y="-42.4" font-family="sans-serif" font-weight="bold" font-size="14.00" fill="#000000">Legend</text>
<polygon fill="#ffffb3" stroke="transparent" points="14,-10 14,-30 34,-30 34,-10 14,-10"/>
<text text-anchor="start" x="37.629" y="-15.4" font-family="sans-serif" font-size="14.00" fill="#000000"> &#160;Declarations</text>
<polygon fill="#8dd3c7" stroke="transparent" points="127,-10 127,-30 147,-30 147,-10 127,-10"/>
<text text-anchor="start" x="150.7251" y="-15.4" font-family="sans-serif" font-size="14.00" fill="#000000"> &#160;Module</text>
<polygon fill="#80b1d3" stroke="transparent" points="213,-10 213,-30 233,-30 233,-10 213,-10"/>
<text text-anchor="start" x="236.7812" y="-15.4" font-family="sans-serif" font-size="14.00" fill="#000000"> &#160;Bootstrap</text>
<polygon fill="#fdb462" stroke="transparent" points="310,-10 310,-30 330,-30 330,-10 310,-10"/>
<text text-anchor="start" x="333.6732" y="-15.4" font-family="sans-serif" font-size="14.00" fill="#000000"> &#160;Providers</text>
<polygon fill="#fb8072" stroke="transparent" points="406,-10 406,-30 426,-30 426,-10 406,-10"/>
<text text-anchor="start" x="429.7258" y="-15.4" font-family="sans-serif" font-size="14.00" fill="#000000"> &#160;Exports</text>
<g id="clust1" class="cluster">
<title>cluster_AppModule</title>
<polygon fill="none" stroke="#000000" stroke-dasharray="1,5" points="58,-70 58,-268 198,-268 198,-70 58,-70"/>
</g>
<g id="clust2" class="cluster">
<title>cluster_AppModule_declarations</title>
<polygon fill="none" stroke="#000000" points="67,-78 67,-130 189,-130 189,-78 67,-78"/>
</g>
<g id="clust6" class="cluster">
<title>cluster_AppModule_bootstrap</title>
<polygon fill="none" stroke="#000000" points="66,-208 66,-260 190,-260 190,-208 66,-208"/>
</g>
<g id="clust8" class="cluster">
<title>cluster_FsApiModule</title>
<polygon fill="none" stroke="#000000" stroke-dasharray="1,5" points="206,-70 206,-268 438,-268 438,-70 206,-70"/>
</g>
<g id="clust10" class="cluster">
<title>cluster_FsApiModule_imports</title>
<polygon fill="none" stroke="#000000" points="360,-78 360,-130 430,-130 430,-78 360,-78"/>
</g>
<g id="clust11" class="cluster">
<title>cluster_FsApiModule_exports</title>
<polygon fill="none" stroke="#000000" points="275,-208 275,-260 383,-260 383,-208 275,-208"/>
</g>
<g id="clust13" class="cluster">
<title>cluster_FsApiModule_providers</title>
<polygon fill="none" stroke="#000000" points="214,-78 214,-130 352,-130 352,-78 214,-78"/>
</g>
<!-- AppComponent -->
<g id="node1" class="node">
<title>AppComponent</title>
<polygon fill="#ffffb3" stroke="#000000" points="180.9399,-122 75.0601,-122 75.0601,-86 180.9399,-86 180.9399,-122"/>
<text text-anchor="middle" x="128" y="-99.8" font-family="Times,serif" font-size="14.00" fill="#000000">AppComponent</text>
</g>
<!-- AppModule -->
<g id="node2" class="node">
<title>AppModule</title>
<polygon fill="#8dd3c7" stroke="#000000" points="169.6571,-187 166.6571,-191 145.6571,-191 142.6571,-187 86.3429,-187 86.3429,-151 169.6571,-151 169.6571,-187"/>
<text text-anchor="middle" x="128" y="-164.8" font-family="Times,serif" font-size="14.00" fill="#000000">AppModule</text>
</g>
<!-- AppComponent&#45;&gt;AppModule -->
<g id="edge1" class="edge">
<title>AppComponent&#45;&gt;AppModule</title>
<path fill="none" stroke="#000000" d="M128,-122.1061C128,-122.1061 128,-140.991 128,-140.991"/>
<polygon fill="#000000" stroke="#000000" points="124.5001,-140.9909 128,-150.991 131.5001,-140.991 124.5001,-140.9909"/>
</g>
<!-- AppComponent  -->
<g id="node3" class="node">
<title>AppComponent </title>
<polygon fill="#80b1d3" stroke="#000000" points="182.439,-252 73.561,-252 73.561,-216 182.439,-216 182.439,-252"/>
<text text-anchor="middle" x="128" y="-229.8" font-family="Times,serif" font-size="14.00" fill="#000000">AppComponent </text>
</g>
<!-- AppModule&#45;&gt;AppComponent  -->
<g id="edge2" class="edge">
<title>AppModule&#45;&gt;AppComponent </title>
<path fill="none" stroke="#000000" stroke-dasharray="1,5" d="M128,-187.1061C128,-187.1061 128,-205.991 128,-205.991"/>
<polygon fill="#000000" stroke="#000000" points="124.5001,-205.9909 128,-215.991 131.5001,-205.991 124.5001,-205.9909"/>
</g>
<!-- FsUtil -->
<g id="node4" class="node">
<title>FsUtil</title>
<polygon fill="#8dd3c7" stroke="#000000" points="422,-122 419,-126 398,-126 395,-122 368,-122 368,-86 422,-86 422,-122"/>
<text text-anchor="middle" x="395" y="-99.8" font-family="Times,serif" font-size="14.00" fill="#000000">FsUtil</text>
</g>
<!-- FsApiModule -->
<g id="node5" class="node">
<title>FsApiModule</title>
<polygon fill="#8dd3c7" stroke="#000000" points="375.7745,-187 372.7745,-191 351.7745,-191 348.7745,-187 282.2255,-187 282.2255,-151 375.7745,-151 375.7745,-187"/>
<text text-anchor="middle" x="329" y="-164.8" font-family="Times,serif" font-size="14.00" fill="#000000">FsApiModule</text>
</g>
<!-- FsUtil&#45;&gt;FsApiModule -->
<g id="edge3" class="edge">
<title>FsUtil&#45;&gt;FsApiModule</title>
<path fill="none" stroke="#000000" d="M371.9435,-122.1061C371.9435,-122.1061 371.9435,-140.991 371.9435,-140.991"/>
<polygon fill="#000000" stroke="#000000" points="368.4436,-140.9909 371.9435,-150.991 375.4436,-140.991 368.4436,-140.9909"/>
</g>
<!-- FsApiConfig  -->
<g id="node6" class="node">
<title>FsApiConfig </title>
<polygon fill="#fb8072" stroke="#000000" points="375.113,-252 282.887,-252 282.887,-216 375.113,-216 375.113,-252"/>
<text text-anchor="middle" x="329" y="-229.8" font-family="Times,serif" font-size="14.00" fill="#000000">FsApiConfig </text>
</g>
<!-- FsApiModule&#45;&gt;FsApiConfig  -->
<g id="edge4" class="edge">
<title>FsApiModule&#45;&gt;FsApiConfig </title>
<path fill="none" stroke="#000000" stroke-dasharray="5,2" d="M329,-187.1061C329,-187.1061 329,-205.991 329,-205.991"/>
<polygon fill="#000000" stroke="#000000" points="325.5001,-205.9909 329,-215.991 332.5001,-205.991 325.5001,-205.9909"/>
</g>
<!-- FsApiConfig -->
<g id="node7" class="node">
<title>FsApiConfig</title>
<ellipse fill="#fdb462" stroke="#000000" cx="283" cy="-104" rx="61.436" ry="18"/>
<text text-anchor="middle" x="283" y="-99.8" font-family="Times,serif" font-size="14.00" fill="#000000">FsApiConfig</text>
</g>
<!-- FsApiConfig&#45;&gt;FsApiModule -->
<g id="edge5" class="edge">
<title>FsApiConfig&#45;&gt;FsApiModule</title>
<path fill="none" stroke="#000000" d="M313.2904,-119.7347C313.2904,-119.7347 313.2904,-140.6451 313.2904,-140.6451"/>
<polygon fill="#000000" stroke="#000000" points="309.7905,-140.645 313.2904,-150.6451 316.7905,-140.6451 309.7905,-140.645"/>
</g>
</g>
</svg>
