<?xml version="1.0" encoding="UTF-8" standalone="no"?>
<!DOCTYPE svg PUBLIC "-//W3C//DTD SVG 1.1//EN"
 "http://www.w3.org/Graphics/SVG/1.1/DTD/svg11.dtd">
<!-- Generated by graphviz version 2.40.1 (20161225.0304)
 -->
<!-- Title: dependencies Pages: 1 -->
<svg width="504pt" height="284pt"
 viewBox="0.00 0.00 504.00 284.00" xmlns="http://www.w3.org/2000/svg" xmlns:xlink="http://www.w3.org/1999/xlink">
<g id="graph0" class="graph" transform="scale(1 1) rotate(0) translate(4 280)">
<title>dependencies</title>
<polygon fill="#ffffff" stroke="transparent" points="-4,4 -4,-280 500,-280 500,4 -4,4"/>
<text text-anchor="start" x="227.0091" y="-42.4" font-family="sans-serif" font-weight="bold" font-size="14.00" fill="#000000">Legend</text>
<polygon fill="#ffffb3" stroke="transparent" points="14,-10 14,-30 34,-30 34,-10 14,-10"/>
<text text-anchor="start" x="37.629" y="-15.4" font-family="sans-serif" font-size="14.00" fill="#000000"> &#160;Declarations</text>
<polygon fill="#8dd3c7" stroke="transparent" points="127,-10 127,-30 147,-30 147,-10 127,-10"/>
<text text-anchor="start" x="150.7251" y="-15.4" font-family="sans-serif" font-size="14.00" fill="#000000"> &#160;Module</text>
<polygon fill="#80b1d3" stroke="transparent" points="213,-10 213,-30 233,-30 233,-10 213,-10"/>
<text text-anchor="start" x="236.7812" y="-15.4" font-family="sans-serif" font-size="14.00" fill="#000000"> &#160;Bootstrap</text>
<polygon fill="#fdb462" stroke="transparent" points="310,-10 310,-30 330,-30 330,-10 310,-10"/>
<text text-anchor="start" x="333.6732" y="-15.4" font-family="sans-serif" font-size="14.00" fill="#000000"> &#160;Providers</text>
<polygon fill="#fb8072" stroke="transparent" points="406,-10 406,-30 426,-30 426,-10 406,-10"/>
<text text-anchor="start" x="429.7258" y="-15.4" font-family="sans-serif" font-size="14.00" fill="#000000"> &#160;Exports</text>
<g id="clust1" class="cluster">
<title>cluster_FsApiModule</title>
<polygon fill="none" stroke="#000000" stroke-dasharray="1,5" points="132,-70 132,-268 364,-268 364,-70 132,-70"/>
</g>
<g id="clust3" class="cluster">
<title>cluster_FsApiModule_imports</title>
<polygon fill="none" stroke="#000000" points="286,-78 286,-130 356,-130 356,-78 286,-78"/>
</g>
<g id="clust4" class="cluster">
<title>cluster_FsApiModule_exports</title>
<polygon fill="none" stroke="#000000" points="201,-208 201,-260 309,-260 309,-208 201,-208"/>
</g>
<g id="clust6" class="cluster">
<title>cluster_FsApiModule_providers</title>
<polygon fill="none" stroke="#000000" points="140,-78 140,-130 278,-130 278,-78 140,-78"/>
</g>
<!-- FsUtil -->
<g id="node1" class="node">
<title>FsUtil</title>
<polygon fill="#8dd3c7" stroke="#000000" points="348,-122 345,-126 324,-126 321,-122 294,-122 294,-86 348,-86 348,-122"/>
<text text-anchor="middle" x="321" y="-99.8" font-family="Times,serif" font-size="14.00" fill="#000000">FsUtil</text>
</g>
<!-- FsApiModule -->
<g id="node2" class="node">
<title>FsApiModule</title>
<polygon fill="#8dd3c7" stroke="#000000" points="301.7745,-187 298.7745,-191 277.7745,-191 274.7745,-187 208.2255,-187 208.2255,-151 301.7745,-151 301.7745,-187"/>
<text text-anchor="middle" x="255" y="-164.8" font-family="Times,serif" font-size="14.00" fill="#000000">FsApiModule</text>
</g>
<!-- FsUtil&#45;&gt;FsApiModule -->
<g id="edge1" class="edge">
<title>FsUtil&#45;&gt;FsApiModule</title>
<path fill="none" stroke="#000000" d="M297.9436,-122.1061C297.9436,-122.1061 297.9436,-140.991 297.9436,-140.991"/>
<polygon fill="#000000" stroke="#000000" points="294.4436,-140.9909 297.9436,-150.991 301.4436,-140.991 294.4436,-140.9909"/>
</g>
<!-- FsApiConfig  -->
<g id="node3" class="node">
<title>FsApiConfig </title>
<polygon fill="#fb8072" stroke="#000000" points="301.113,-252 208.887,-252 208.887,-216 301.113,-216 301.113,-252"/>
<text text-anchor="middle" x="255" y="-229.8" font-family="Times,serif" font-size="14.00" fill="#000000">FsApiConfig </text>
</g>
<!-- FsApiModule&#45;&gt;FsApiConfig  -->
<g id="edge2" class="edge">
<title>FsApiModule&#45;&gt;FsApiConfig </title>
<path fill="none" stroke="#000000" stroke-dasharray="5,2" d="M255,-187.1061C255,-187.1061 255,-205.991 255,-205.991"/>
<polygon fill="#000000" stroke="#000000" points="251.5001,-205.9909 255,-215.991 258.5001,-205.991 251.5001,-205.9909"/>
</g>
<!-- FsApiConfig -->
<g id="node4" class="node">
<title>FsApiConfig</title>
<ellipse fill="#fdb462" stroke="#000000" cx="209" cy="-104" rx="61.436" ry="18"/>
<text text-anchor="middle" x="209" y="-99.8" font-family="Times,serif" font-size="14.00" fill="#000000">FsApiConfig</text>
</g>
<!-- FsApiConfig&#45;&gt;FsApiModule -->
<g id="edge3" class="edge">
<title>FsApiConfig&#45;&gt;FsApiModule</title>
<path fill="none" stroke="#000000" d="M239.2904,-119.7347C239.2904,-119.7347 239.2904,-140.6451 239.2904,-140.6451"/>
<polygon fill="#000000" stroke="#000000" points="235.7905,-140.645 239.2904,-150.6451 242.7905,-140.6451 235.7905,-140.645"/>
</g>
</g>
</svg>
